<svg xmlns:xlink="http://www.w3.org/1999/xlink" version="1.1" style="font-family:dosis, sans-serif;font-size:12px;" xmlns="http://www.w3.org/2000/svg" width="600" height="400"><desc>Created with Highcharts 4.2.7</desc><defs><clipPath id="highcharts-57"><rect x="0" y="0" width="580" height="304"></rect></clipPath></defs><rect x="1" y="1" width="598" height="398" fill="none" class=" highcharts-background"></rect><rect x="10" y="10" width="580" height="304" fill="rgb(255, 255, 255)" fill-opacity=" .9"></rect><g class="highcharts-series-group"><g class="highcharts-series highcharts-series-0" transform="translate(10,10) scale(1 1)"><path fill="#228c02" d="M 278.9918530718522 114.00000082965548 A 40 40 0 0 1 298.9721959217835 119.34294602736847 L 279 154 A 0 0 0 0 0 279 154 Z" stroke="#FFFFFF" stroke-width="1" stroke-linejoin="round" transform="translate(0,0)"></path><path fill="#f15518" d="M 299.0068429838828 119.36293554848709 A 40 40 0 0 1 313.65298545266796 173.97925422074567 L 279 154 A 0 0 0 0 0 279 154 Z" stroke="#FFFFFF" stroke-width="1" stroke-linejoin="round" transform="translate(0,0)"></path><path fill="#f0f200" d="M 313.6329888752858 174.01389721079656 A 40 40 0 0 1 299.0414700391408 188.6170402933327 L 279 154 A 0 0 0 0 0 279 154 Z" stroke="#FFFFFF" stroke-width="1" stroke-linejoin="round" transform="translate(0,0)"></path><path fill="#466fc7" d="M 299.0068429838828 188.6370644515129 A 40 40 0 0 1 239.00000702476535 154.023706142204 L 279 154 A 0 0 0 0 0 279 154 Z" stroke="#FFFFFF" stroke-width="1" stroke-linejoin="round" transform="translate(0,0)"></path><path fill="#1cc52e" d="M 239.0000033186219 153.98370614404234 A 40 40 0 0 1 244.33517985701718 134.04128650301698 L 279 154 A 0 0 0 0 0 279 154 Z" stroke="#FFFFFF" stroke-width="1" stroke-linejoin="round" transform="translate(0,0)"></path><path fill="#db3b00" d="M 244.35515589959633 134.00663166800737 A 40 40 0 0 1 258.9726327503162 119.37479875803905 L 279 154 A 0 0 0 0 0 279 154 Z" stroke="#FFFFFF" stroke-width="1" stroke-linejoin="round" transform="translate(0,0)"></path><path fill="#9b34ce" d="M 259.00726795947014 119.35478870672644 A 40 40 0 0 1 278.9444408024771 114.00003858532398 L 279 154 A 0 0 0 0 0 279 154 Z" stroke="#FFFFFF" stroke-width="1" stroke-linejoin="round" transform="translate(0,0)"></path></g><g class="highcharts-markers highcharts-series-0" transform="translate(10,10) scale(1 1)"></g></g><g class="highcharts-data-labels highcharts-series-0" transform="translate(10,10) scale(1 1)" opacity="1"><path fill="none" d="M 301.61733315717646 85.88519215976523 C 296.61733315717646 85.88519215976523 294.5467807963563 93.61259877007777 291.6997713002286 104.23778285925752 L 288.85276180410085 114.86296694843728" stroke="#228c02" stroke-width="1"></path><path fill="none" d="M 351.1148078402348 135.3826668428235 C 346.1148078402348 135.3826668428235 338.38740122992226 137.4532192036437 327.7622171407425 140.30022869977142 L 317.13703305156275 143.14723819589915" stroke="#f15518" stroke-width="1"></path><path fill="none" d="M 332.99747468305833 202.99747468305833 C 327.99747468305833 202.99747468305833 322.34062043356596 197.34062043356596 314.56244584051393 189.56244584051393 L 306.7842712474619 181.7842712474619" stroke="#f0f200" stroke-width="1"></path><path fill="none" d="M 238.50000000000003 214.12177826491072 C 243.50000000000003 214.12177826491072 247.5 207.1935750346352 253 197.66729559300637 L 258.5 188.14101615137756" stroke="#466fc7" stroke-width="1"></path><path fill="none" d="M 205.85386189884895 135.5 C 210.85386189884895 135.5 218.61259877007774 137.45321920364376 229.2377828592575 140.30022869977148 L 239.86296694843725 143.1472381958992" stroke="#1cc52e" stroke-width="1"></path><path fill="none" d="M 219.0573696447352 109.5 C 224.0573696447352 109.5 234.659379566434 109.6593795664341 242.43755415948604 117.43755415948611 L 250.21572875253807 125.21572875253813" stroke="#db3b00" stroke-width="1"></path><path fill="none" d="M 255.38266684282348 83.5 C 260.3826668428235 83.5 262.45321920364364 93.61259877007777 265.30022869977137 104.23778285925752 L 268.1472381958991 114.86296694843728" stroke="#9b34ce" stroke-width="1"></path><g style="cursor:pointer;" transform="translate(307,76)"><text x="5" style="font-size:14px;font-weight:bold;font-family:'arial', sans-serif;color:#333;text-shadow:none;fill:#333;text-rendering:geometricprecision;" y="19"><tspan>Análise e Desenvolvimento de Sistemas: 8.3%</tspan></text></g><g style="cursor:pointer;" transform="translate(356,125)"><text x="5" style="font-size:14px;font-weight:bold;font-family:'arial', sans-serif;color:#333;text-shadow:none;fill:#333;text-rendering:geometricprecision;" y="19"><tspan>Ciência da Computação: 25.0%</tspan></text></g><g style="cursor:pointer;" transform="translate(338,193)"><text x="5" style="font-size:14px;font-weight:bold;font-family:'arial', sans-serif;color:#333;text-shadow:none;fill:#333;text-rendering:geometricprecision;" y="19"><tspan>Desenvolvimento de Jogos: 8.3%</tspan></text></g><g style="cursor:pointer;" transform="translate(-10,204)"><text x="5" style="font-size:14px;font-weight:bold;font-family:'arial', sans-serif;color:#333;text-shadow:none;fill:#333;text-rendering:geometricprecision;" y="19"><tspan>Engenharia da Computação: 33.3%</tspan></text></g><g style="cursor:pointer;" transform="translate(-9,126)"><text x="5" style="font-size:14px;font-weight:bold;font-family:'arial', sans-serif;color:#333;text-shadow:none;fill:#333;text-rendering:geometricprecision;" y="19"><tspan>Engenharia de Software: 8.3%</tspan></text></g><g style="cursor:pointer;" transform="translate(80,100)"><text x="5" style="font-size:14px;font-weight:bold;font-family:'arial', sans-serif;color:#333;text-shadow:none;fill:#333;text-rendering:geometricprecision;" y="19"><tspan>Gestão de TI: 8.3%</tspan></text></g><g style="cursor:pointer;" transform="translate(44,74)"><text x="5" style="font-size:14px;font-weight:bold;font-family:'arial', sans-serif;color:#333;text-shadow:none;fill:#333;text-rendering:geometricprecision;" y="19"><tspan>Técnico em Informática: 8.3%</tspan></text></g></g><g class="highcharts-legend" transform="translate(39,326)"><g><g><g class="highcharts-legend-item" transform="translate(8,3)"><text x="21" style="color:#333;font-size:13px;font-weight:bold;cursor:pointer;font-family:dosis, sans-serif;text-transform:none;fill:#333;" text-anchor="start" y="16"><tspan>Análise e Desenvolvimento de Sistemas</tspan></text><rect x="0" y="4" width="16" height="13" fill="#228c02"></rect></g><g class="highcharts-legend-item" transform="translate(251.9207763671875,3)"><text x="21" y="16" style="color:#333;font-size:13px;font-weight:bold;cursor:pointer;font-family:dosis, sans-serif;text-transform:none;fill:#333;" text-anchor="start"><tspan>Ciência da Computação</tspan></text><rect x="0" y="4" width="16" height="13" fill="#f15518"></rect></g><g class="highcharts-legend-item" transform="translate(8,19)"><text x="21" y="16" style="color:#333;font-size:13px;font-weight:bold;cursor:pointer;font-family:dosis, sans-serif;text-transform:none;fill:#333;" text-anchor="start"><tspan>Desenvolvimento de Jogos</tspan></text><rect x="0" y="4" width="16" height="13" fill="#f0f200"></rect></g><g class="highcharts-legend-item" transform="translate(187.53688049316406,19)"><text x="21" y="16" style="color:#333;font-size:13px;font-weight:bold;cursor:pointer;font-family:dosis, sans-serif;text-transform:none;fill:#333;" text-anchor="start"><tspan>Engenharia da Computação</tspan></text><rect x="0" y="4" width="16" height="13" fill="#466fc7"></rect></g><g class="highcharts-legend-item" transform="translate(369.9715118408203,19)"><text x="21" y="16" style="color:#333;font-size:13px;font-weight:bold;cursor:pointer;font-family:dosis, sans-serif;text-transform:none;fill:#333;" text-anchor="start"><tspan>Engenharia de Software</tspan></text><rect x="0" y="4" width="16" height="13" fill="#1cc52e"></rect></g><g class="highcharts-legend-item" transform="translate(8,35)"><text x="21" y="16" style="color:#333;font-size:13px;font-weight:bold;cursor:pointer;font-family:dosis, sans-serif;text-transform:none;fill:#333;" text-anchor="start"><tspan>Gestão de TI</tspan></text><rect x="0" y="4" width="16" height="13" fill="#db3b00"></rect></g><g class="highcharts-legend-item" transform="translate(111.93181991577148,35)"><text x="21" y="16" style="color:#333;font-size:13px;font-weight:bold;cursor:pointer;font-family:dosis, sans-serif;text-transform:none;fill:#333;" text-anchor="start"><tspan>Técnico em Informática</tspan></text><rect x="0" y="4" width="16" height="13" fill="#9b34ce"></rect></g></g></g></g><g class="highcharts-tooltip" display="none" style="cursor:default;padding:0;pointer-events:none;white-space:nowrap;" transform="translate(0,0)"><path fill="rgb(219,219,216)" fill-opacity="0.8" d="M 3 0 L 13 0 C 16 0 16 0 16 3 L 16 13 C 16 16 16 16 13 16 L 3 16 C 0 16 0 16 0 13 L 0 3 C 0 0 0 0 3 0"></path><text x="8" style="font-size:12px;color:#333;fill:#333;" y="20"></text></g><text x="590" text-anchor="end" style="cursor:pointer;color:#666;font-size:9px;fill:#666;" y="395">meta-chart.com</text></svg>